<?xml version="1.0" encoding="utf-8"?>
<!-- Generator: Adobe Illustrator 16.2.1, SVG Export Plug-In . SVG Version: 6.00 Build 0)  -->
<!DOCTYPE svg PUBLIC "-//W3C//DTD SVG 1.1//EN" "http://www.w3.org/Graphics/SVG/1.1/DTD/svg11.dtd">
<svg version="1.1" xmlns="http://www.w3.org/2000/svg" xmlns:xlink="http://www.w3.org/1999/xlink" x="0px" y="0px" width="150px"
	 height="150px" viewBox="0 0 150 150" enable-background="new 0 0 150 150" xml:space="preserve">
<g id="Layer_1">
	<path fill="#0064D2" d="M75,150c-41.355,0-75-33.645-75-75C0,33.645,33.645,0,75,0c41.355,0,75,33.645,75,75
		C150,116.355,116.355,150,75,150z M75,2.941C35.267,2.941,2.941,35.267,2.941,75c0,39.732,32.326,72.059,72.059,72.059
		c39.732,0,72.059-32.326,72.059-72.059C147.059,35.267,114.732,2.941,75,2.941z"/>
	<g id="Layer_2" display="none">
		<g display="inline">
			<g>
				<path fill-rule="evenodd" clip-rule="evenodd" fill="#0064D2" d="M83.908,83.041c-5.204-0.768-4.348-6.636-4.518-6.551
					c-0.17,0.086,0.043-1.236,0.043-1.236c2.996-1.678,4.006-6.341,4.006-6.341v-5.917c0,0-1.191-6.353-5.973-6.353l-4.119-2.022
					c-5.32,0-5.763,8.375-5.763,8.375s0.042,2.153,0,5.438c-0.043,3.285,3.891,6.923,3.891,6.923s0.213,1.323,0.042,1.237
					c-0.171-0.085,1.072,5.68-4.131,6.447s-9.512,3.982-10.493,4.922c-1.7,2.196-1.311,7.547-1.311,7.547h39.901
					c0,0-0.554-6.609-1.534-7.547C92.971,87.023,89.111,83.809,83.908,83.041z M105.939,90.232c-0.689-0.66-2.733-2.918-6.39-3.457
					c-3.655-0.539-2.937-4.779-3.057-4.72s0.03-0.869,0.03-0.869c2.105-1.179,2.775-4.337,2.775-4.337v-5.363
					c0,0-0.915-4.463-4.273-4.463l-2.895-1.011c-3.737,0-4.513,5.474-4.513,5.474s0.03,2.718,0,5.025
					c-0.03,2.307,2.847,4.865,2.847,4.865s0.149,0.928,0.029,0.869c-0.072-0.037,0.152,0.654,0.455,1.244
					c4.172,2.595,4.599,3.594,4.97,4.057c0.87,0.631,1.688,7.954,1.688,7.954l9.873-0.074
					C107.48,95.427,106.629,90.892,105.939,90.232z M60.505,82.246c-0.12,0.059,0.03-0.869,0.03-0.869s2.876-2.559,2.846-4.865
					c-0.03-2.307,0-5.025,0-5.025s-0.775-5.89-4.513-5.89l-2.894,1.427c-3.358,0-4.44,4.463-4.44,4.463v5.363
					c0,0,0.836,3.158,2.942,4.337c0,0,0.15,1.429,0.03,1.368c-0.12-0.059,0.599,3.682-3.057,4.221
					c-3.656,0.539-5.7,2.797-6.389,3.457c-0.689,0.659-1.542,5.194-1.542,5.194l9.874,0.074c0,0-0.349-5.429,0.938-7.392
					c0.371-0.464,1.61-1.836,5.782-4.432C60.5,82.734,60.578,82.209,60.505,82.246z"/>
			</g>
		</g>
	</g>
	<g id="Layer_3" display="none">
		<g display="inline">
			<g>
				<path fill-rule="evenodd" clip-rule="evenodd" fill="#0064D2" d="M89.5,59.5c2.209,0,4-1.791,4-4v-4c0-2.209-1.791-4-4-4
					s-4,1.791-4,4v4C85.5,57.709,87.291,59.5,89.5,59.5z M61.5,59.5c2.209,0,4-1.791,4-4v-4c0-2.209-1.791-4-4-4
					c-2.209,0-4,1.791-4,4v4C57.5,57.709,59.291,59.5,61.5,59.5z M99.5,53.5h-4v2c0,0-0.062,6.063-6,6.063c0,0-6-0.063-6-6
					L83.438,53.5h-16v2c0,0,0.062,6.063-5.938,6.063c0,0-6.062,0.062-6.062-6V53.5H51.5c-2.209,0-4,1.791-4,4v42
					c0,2.209,1.791,4,4,4h48c2.209,0,4-1.791,4-4v-42C103.5,55.291,101.709,53.5,99.5,53.5z M99.5,99.5h-48v-32h48V99.5z
					 M75.602,94.5c2.848-4.782,10.627-21.13,14.898-22c-0.586,0-0.853,0.018-0.966,0.034c0.019,0.048-0.175,0.025,0,0
					c-0.003-0.009-0.012-0.02-0.034-0.034c-9.729,4.565-14.373,15.261-14.373,15.261L67.5,82.5l-2-0.131
					C68.822,83.457,73.787,91.137,75.602,94.5z"/>
			</g>
		</g>
	</g>
	<g id="Layer_4" display="none">
	</g>
	<g id="Layer_5">
		<g>
			<g>
				<path fill-rule="evenodd" clip-rule="evenodd" fill="#0064D2" d="M99.5,66.5h1c-4.397-25.326-25-25-25-25
					c-21.968,0.132-25,25-25,25h1c-2.761,0-5,2.238-5,5v9c0,2.762,2.239,5,5,5h2c2.761,0,5-2.238,5-5v-9c0-2.762-2.239-5-5-5h1
					c4.203-21.18,21-21,21-21c18.811,2.059,21,21,21,21h1c-2.762,0-5,2.238-5,5v9c0,2.762,2.238,5,5,5h-1
					c0,0-2.932,6.745-10.594,12.68c-1.006-1.734-3.224-2.328-4.959-1.326l-5.66,3.268c-1.736,1.003-2.332,3.224-1.329,4.96
					l0.726,1.258c1.003,1.737,3.224,2.332,4.96,1.329l5.66-3.268c1.736-1.003,2.332-3.224,1.329-4.96l-0.013-0.021
					c0.915-0.614,7.283-5.102,11.879-13.919h1c2.762,0,5-2.238,5-5v-9C104.5,68.738,102.262,66.5,99.5,66.5z"/>
			</g>
		</g>
	</g>
	<g id="Layer_6" display="none">
		<path display="inline" fill="#0064D2" d="M98.592,93.831l-6.314-8.922c-1.258-1.77-3.777-2.151-5.613-0.847l-5.489,4.189
			c-0.22-0.176-1.445-0.358-1.685-0.552c-2.192-1.756-4.194-4.161-7.087-8.252c-2.902-4.099-4.177-7.737-5.11-10.394
			c-0.099-0.282,0.808-1.553,0.713-1.812l3.012-2.136l1.481-1.055c1.84-1.307,2.311-3.813,1.056-5.588l-6.314-8.922
			c-1.254-1.772-3.774-2.154-5.614-0.847l-2.513,1.796l0.049,0.068c-0.876,0.797-1.658,1.755-2.3,2.822
			c-0.597,1.019-1.031,2.014-1.326,3.034c-2.425,8.177,0.084,16.453,8.657,28.562c11.851,16.739,23.546,17.617,24.052,17.648
			c1.104,0.055,2.184-0.027,3.308-0.258c1.208-0.251,2.368-0.672,3.407-1.234l0.039,0.05l2.537-1.763
			C99.373,98.115,99.846,95.608,98.592,93.831z"/>
	</g>
	<g id="Layer_7">
	</g>
	<g id="Layer_8">
	</g>
</g>
<g id="Layer_9">
</g>
</svg>
