<?xml version="1.0" encoding="utf-8"?>
<!-- Generator: Adobe Illustrator 16.0.0, SVG Export Plug-In . SVG Version: 6.00 Build 0)  -->
<!DOCTYPE svg PUBLIC "-//W3C//DTD SVG 1.1//EN" "http://www.w3.org/Graphics/SVG/1.1/DTD/svg11.dtd">
<svg version="1.1" id="Layer_1" xmlns="http://www.w3.org/2000/svg" xmlns:xlink="http://www.w3.org/1999/xlink" x="0px" y="0px"
	 width="36px" height="36px" viewBox="0 0 36 36" enable-background="new 0 0 36 36" xml:space="preserve">
<path fill="#0064D2" d="M33.777,27.801l-4.941-4.951c-0.984-0.981-2.615-0.951-3.633,0.069l-2.49,2.493
	c-0.157-0.087-0.319-0.178-0.491-0.274c-1.571-0.872-3.724-2.067-5.988-4.338c-2.271-2.274-3.467-4.434-4.34-6.009
	c-0.093-0.168-0.181-0.328-0.269-0.481l1.672-1.671l0.82-0.824c1.021-1.022,1.049-2.654,0.066-3.64L9.242,3.224
	C8.26,2.24,6.629,2.271,5.609,3.293L4.217,4.695l0.038,0.038C3.787,5.33,3.397,6.019,3.107,6.762
	C2.839,7.468,2.672,8.143,2.596,8.818c-0.652,5.418,1.82,10.371,8.529,17.091c9.273,9.289,16.747,8.587,17.069,8.553
	c0.702-0.084,1.375-0.252,2.059-0.518c0.735-0.288,1.423-0.679,2.018-1.145l0.03,0.026l1.411-1.384
	C34.73,30.42,34.759,28.787,33.777,27.801z"/>
</svg>
