<?xml version="1.0" encoding="utf-8"?>
<!-- Generator: Adobe Illustrator 16.2.1, SVG Export Plug-In . SVG Version: 6.00 Build 0)  -->
<!DOCTYPE svg PUBLIC "-//W3C//DTD SVG 1.1//EN" "http://www.w3.org/Graphics/SVG/1.1/DTD/svg11.dtd" [
	<!ENTITY ns_flows "http://ns.adobe.com/Flows/1.0/">
	<!ENTITY ns_extend "http://ns.adobe.com/Extensibility/1.0/">
	<!ENTITY ns_ai "http://ns.adobe.com/AdobeIllustrator/10.0/">
	<!ENTITY ns_graphs "http://ns.adobe.com/Graphs/1.0/">
]>
<svg version="1.1" id="Layer_1" xmlns:x="&ns_extend;" xmlns:i="&ns_ai;" xmlns:graph="&ns_graphs;"
	 xmlns="http://www.w3.org/2000/svg" xmlns:xlink="http://www.w3.org/1999/xlink" xmlns:a="http://ns.adobe.com/AdobeSVGViewerExtensions/3.0/"
	 x="0px" y="0px" width="150px" height="150px" viewBox="0 0 150 150" enable-background="new 0 0 150 150" xml:space="preserve">
<path fill="#0064D2"  a:adobe-opacity-share="1" d="M75,150c-41.355,0-75-33.645-75-75C0,33.645,33.645,0,75,0
	c41.355,0,75,33.645,75,75C150,116.355,116.355,150,75,150z M75,2.941C35.267,2.941,2.941,35.267,2.941,75
	S35.267,147.059,75,147.059S147.059,114.733,147.059,75S114.733,2.941,75,2.941z"/>
<g id="Power_xA0_Clipping_Path_1_"  a:adobe-opacity-share="1">
	<g  a:adobe-opacity-share="0">
		<polygon fill="#0064D2" points="96.197,68.542 69.492,68.542 80.509,33.578 53.802,79.177 77.504,79.177 63.984,116.422 		"/>
	</g>
</g>
</svg>
