<?xml version="1.0" encoding="utf-8"?>
<!-- Generator: Adobe Illustrator 16.2.1, SVG Export Plug-In . SVG Version: 6.00 Build 0)  -->
<!DOCTYPE svg PUBLIC "-//W3C//DTD SVG 1.1//EN" "http://www.w3.org/Graphics/SVG/1.1/DTD/svg11.dtd">
<svg version="1.1" id="Layer_1" xmlns="http://www.w3.org/2000/svg" xmlns:xlink="http://www.w3.org/1999/xlink" x="0px" y="0px"
	 width="320px" height="320px" viewBox="0 0 320 320" enable-background="new 0 0 320 320" xml:space="preserve">
<g>
	<defs>
		<path id="XMLID_1_" d="M160.5-0.5c88.365,0,160,71.635,160,160s-71.635,160-160,160c-88.366,0-160-71.635-160-160
			S72.134-0.5,160.5-0.5z"/>
	</defs>
	<use xlink:href="#XMLID_1_"  overflow="visible" fill-rule="evenodd" clip-rule="evenodd" fill="#FFFFFF"/>
	<clipPath id="XMLID_3_">
		<use xlink:href="#XMLID_1_"  overflow="visible"/>
	</clipPath>
	<g clip-path="url(#XMLID_3_)">
		<path fill="none" d="M238.129,239.518c-4.128-3.941-20.361-17.443-42.255-20.667s-18.288-27.872-19.005-27.513
			c-0.719,0.358,0.18-5.195,0.18-5.195c12.608-7.049,16.852-26.633,16.852-26.633v-24.85c0,0-5.012-26.682-25.124-26.682
			l-17.33-8.492c-22.382,0-24.248,35.174-24.248,35.174s0.18,9.041,0,22.836c-0.18,13.796,16.371,29.077,16.371,29.077
			s0.898,5.556,0.179,5.196c-0.717-0.357,4.512,23.857-17.381,27.081c-21.893,3.224-40.018,16.726-44.145,20.667
			c-7.154,9.227-5.514,62.174-5.514,62.174s43.542,19.825,86.092,19.825c41.371,0,81.784-19.825,81.784-19.825
			s-0.012-0.304-0.037-0.868C244.235,293.648,241.955,243.171,238.129,239.518z M288.565,249.051
			c-2.9-2.768-11.5-12.254-26.882-14.52c-15.381-2.263-12.355-20.072-12.859-19.821c-0.504,0.253,0.126-3.649,0.126-3.649
			c8.858-4.952,11.675-18.219,11.675-18.219v-22.521c0,0-3.848-18.744-17.979-18.744l-12.175-4.247
			c-15.726,0-18.986,22.991-18.986,22.991s0.126,11.415,0,21.104c-0.126,9.69,11.974,20.432,11.974,20.432s0.63,3.901,0.127,3.65
			c-0.304-0.153,0.638,2.75,1.914,5.226c17.55,10.901,19.347,15.094,20.907,17.041c3.663,2.647,7.104,58.948,7.104,58.948
			s0.373-0.288,1.047-0.809c3.1-2.395,12.562-7.399,21.382-14.212c9.117-7.042,17.546-15.859,17.546-15.859
			S291.466,251.82,288.565,249.051z M97.415,215.508c-0.504,0.251,0.125-3.65,0.125-3.65s12.101-10.741,11.974-20.432
			c-0.126-9.689,0-21.104,0-21.104s-3.261-24.74-18.986-24.74l-12.175,5.996c-14.129,0-18.68,18.744-18.68,18.744v22.521
			c0,0,3.518,13.267,12.376,18.219c0,0,0.631,6.001,0.126,5.748c-0.504-0.25,2.521,15.46-12.86,17.723
			c-15.382,2.266-23.982,11.752-26.881,14.52c-2.9,2.77-4.921,14.487-4.921,14.487s7.898,8.569,17.385,16.346
			c10.454,8.569,22.591,16.424,22.591,16.424s-1.469-47.925,3.948-56.171c1.56-1.947,6.775-7.713,24.325-18.615
			C97.389,217.56,97.717,215.354,97.415,215.508z"/>
	</g>
	<g clip-path="url(#XMLID_3_)">
		<g>
			<path fill-rule="evenodd" clip-rule="evenodd" fill="#AFB6B9" d="M238.129,238.001c-4.128-3.941-20.361-17.443-42.255-20.667
				s-18.288-27.872-19.005-27.513c-0.719,0.358,0.18-5.195,0.18-5.195c12.608-7.049,16.852-26.633,16.852-26.633v-24.85
				c0,0-5.012-26.682-25.124-26.682l-17.33-8.492c-22.382,0-24.248,35.174-24.248,35.174s0.18,9.041,0,22.836
				c-0.18,13.796,16.371,29.077,16.371,29.077s0.898,5.556,0.179,5.196c-0.717-0.357,4.512,23.857-17.381,27.081
				c-21.893,3.224-40.018,16.726-44.145,20.667c-7.154,9.227-5.514,62.174-5.514,62.174S120.249,320,162.8,320
				c41.371,0,81.784-19.825,81.784-19.825s-0.012-0.304-0.037-0.868C244.235,292.132,241.955,241.654,238.129,238.001z
				 M288.565,247.534c-2.9-2.768-11.5-12.254-26.882-14.52c-15.381-2.263-12.355-20.072-12.859-19.821
				c-0.504,0.253,0.126-3.649,0.126-3.649c8.858-4.952,11.675-18.219,11.675-18.219v-22.521c0,0-3.848-18.744-17.979-18.744
				l-12.175-4.247c-15.726,0-18.986,22.991-18.986,22.991s0.126,11.415,0,21.104c-0.126,9.69,11.974,20.432,11.974,20.432
				s0.63,3.901,0.127,3.65c-0.304-0.153,0.638,2.75,1.914,5.226c17.55,10.901,19.347,15.094,20.907,17.041
				c3.663,2.647,7.104,58.948,7.104,58.948s0.373-0.288,1.047-0.809c3.1-2.395,12.562-7.399,21.382-14.212
				c9.117-7.042,17.546-15.859,17.546-15.859S291.466,250.304,288.565,247.534z M97.415,213.991c-0.504,0.251,0.125-3.65,0.125-3.65
				s12.101-10.741,11.974-20.432c-0.126-9.689,0-21.104,0-21.104s-3.261-24.74-18.986-24.74l-12.175,5.996
				c-14.129,0-18.68,18.744-18.68,18.744v22.521c0,0,3.518,13.267,12.376,18.219c0,0,0.631,6.001,0.126,5.748
				c-0.504-0.25,2.521,15.46-12.86,17.723c-15.382,2.266-23.982,11.752-26.881,14.52c-2.9,2.77-4.921,14.487-4.921,14.487
				s7.898,8.569,17.385,16.346c10.454,8.569,22.591,16.424,22.591,16.424s-1.469-47.925,3.948-56.171
				c1.56-1.947,6.775-7.713,24.325-18.615C97.389,216.043,97.717,213.838,97.415,213.991z"/>
		</g>
	</g>
</g>
<g id="Layer_2">
</g>
</svg>
