<?xml version="1.0" encoding="utf-8"?>
<!-- Generator: Adobe Illustrator 16.2.1, SVG Export Plug-In . SVG Version: 6.00 Build 0)  -->
<!DOCTYPE svg PUBLIC "-//W3C//DTD SVG 1.1//EN" "http://www.w3.org/Graphics/SVG/1.1/DTD/svg11.dtd">
<svg version="1.1" id="Layer_1" xmlns="http://www.w3.org/2000/svg" xmlns:xlink="http://www.w3.org/1999/xlink" x="0px" y="0px"
	 width="26px" height="26px" viewBox="0 0 26 26" enable-background="new 0 0 26 26" xml:space="preserve">
<g>
	<g>
		<path fill-rule="evenodd" clip-rule="evenodd" fill="#8E8E93" d="M25.735,24.297l-7.483-7.482
			c1.404-1.723,2.248-3.919,2.248-6.314c0-5.523-4.477-10-10-10c-5.522,0-10,4.477-10,10c0,5.523,4.478,10,10,10
			c2.407,0,4.615-0.852,6.341-2.269l7.48,7.48L25.735,24.297z M10.5,18.5c-4.418,0-8-3.582-8-8c0-4.418,3.582-8,8-8s8,3.582,8,8
			C18.5,14.918,14.918,18.5,10.5,18.5z"/>
	</g>
</g>
</svg>
