<?xml version="1.0" encoding="utf-8"?>
<!-- Generator: Adobe Illustrator 16.2.1, SVG Export Plug-In . SVG Version: 6.00 Build 0)  -->
<!DOCTYPE svg PUBLIC "-//W3C//DTD SVG 1.1//EN" "http://www.w3.org/Graphics/SVG/1.1/DTD/svg11.dtd">
<svg version="1.1" id="Layer_1" xmlns="http://www.w3.org/2000/svg" xmlns:xlink="http://www.w3.org/1999/xlink" x="0px" y="0px"
	 width="52px" height="52px" viewBox="0 0 52 52" enable-background="new 0 0 52 52" xml:space="preserve">
<g id="Layer_2">
	<path fill="#0064D2" d="M29.68,0.539L13.212,28.655h14.615l-8.336,22.967l19.862-29.525H22.887L29.68,0.539z"/>
</g>
<g display="none">
	<g display="inline">
		<path fill="#0064D2" d="M40.1,2.933H11.899c-1.947,0-3.525,1.578-3.525,3.525v38.776c0,1.947,1.578,3.525,3.525,3.525h21.096
			l10.63-10.465V6.458C43.625,4.511,42.047,2.933,40.1,2.933z M14.543,9.983h23.794v1.763H14.543V9.983z M14.543,17.033h23.794
			v1.762H14.543V17.033z M14.543,24.083h23.794v1.763H14.543V24.083z M14.543,31.134h23.794v1.762H14.543V31.134z M41.037,37.854
			l-8.54,8.536c-1.542,1.542-1.211-1.155-1.211-1.155v-7.05c0-1.708,1.652-1.708,1.652-1.708h7.438
			C42.964,36.421,41.037,37.854,41.037,37.854z"/>
	</g>
</g>
<g id="Layer_3" display="none">
	<g display="inline">
		<g>
			<path fill="#0064D2" d="M29.32,9.965c2.194,0,3.974-1.798,3.974-4.016c0-2.218-1.779-4.017-3.974-4.017
				c-2.195,0-3.975,1.798-3.975,4.017C25.347,8.167,27.125,9.965,29.32,9.965z M38.722,24.264l-3.489-1.958
				c0,0-4.07-2.742-3.877-6.269c0,0-0.703-3.893-4.192-5.068c0,0-1.745-1.371-3.877-0.587l-9.183,4.285c0,0-1.333,0.783-1.333,1.763
				c0,0.979,0,9.231,0,9.231s-0.242,1.762,0.945,1.762c0,0,2.035-0.685,2.035-1.272l0.097-6.979c0,0,0.243-0.563,1.745-1.542
				l1.551-1.2c0,0,1.744-1.175,1.357,0.392c0,0-3.077,4.603-3.077,7.443v7.051l-6.373,14.79c0,0-1.938,3.036,1.163,4.016
				c0,0,2.084,0.318,3.053-1.642l5.621-10.896c0,0,1.261-3.207,2.326-2.13l3.974,4.481c0,0,1.066,2.351,1.066,8.618
				c0,0-0.388,1.567,2.521,1.567c0,0,2.084,0.099,2.084-1.469v-5.778c0,0-0.339-6.66-6.154-13.32v-1.959l0.969-5.485
				c0,0,1.163-1.371,1.938-0.195c0,0-0.193,1.665,3.101,3.428l3.878,1.469c0,0,2.132,0.784,2.521-0.391
				C39.109,26.419,39.885,24.656,38.722,24.264z"/>
		</g>
	</g>
</g>
<g id="Layer_4" display="none">
	<g display="inline">
		<g>
			<path fill="#0064D2" d="M19.995,30.467c-2.962-0.438-1.253-3.873-1.35-3.826c-0.098,0.049,0.024-0.703,0.024-0.703
				c1.706-0.956,1.699-2.696,1.699-2.696v-1.833c0,0-0.192-3.616-2.913-3.616l-2.346-0.819c-3.029,0-2.969,4.435-2.969,4.435
				s0.024-0.309,0,1.561c-0.025,1.87,1.618,3.123,1.618,3.123s0.122,0.752,0.025,0.701c-0.098-0.047,0.895,3.235-2.067,3.672
				c-2.963,0.437-3.265,1.857-3.823,2.392c-0.968,1.25-0.783,3.116-0.783,3.116h18.055c0,0-0.275-2.633-0.833-3.166
				C23.772,32.272,22.958,30.903,19.995,30.467z M48.077,10.612H3.922c-0.904,0-1.638,0.734-1.638,1.638v27.845
				c0,0.905,0.734,1.637,1.638,1.637h44.155c0.905,0,1.638-0.731,1.638-1.637V12.25C49.715,11.345,48.982,10.612,48.077,10.612z
				 M26.853,36c0,0.904-0.801,1.638-1.706,1.638H7.13c-0.904,0-1.638-0.733-1.638-1.638V17.164c0-0.905,0.734-1.638,1.638-1.638
				h18.017c0.905,0,1.706,0.732,1.706,1.638V36z M45.688,36.068H30.947v-1.638h14.741V36.068z M45.688,30.336H30.947v-1.639h14.741
				V30.336z M45.688,24.603H30.947v-1.638h14.741V24.603z M45.688,18.87H30.947v-1.638h14.741V18.87z"/>
		</g>
	</g>
</g>
</svg>
