<?xml version="1.0" encoding="utf-8"?>
<!-- Generator: Adobe Illustrator 16.2.1, SVG Export Plug-In . SVG Version: 6.00 Build 0)  -->
<!DOCTYPE svg PUBLIC "-//W3C//DTD SVG 1.1//EN" "http://www.w3.org/Graphics/SVG/1.1/DTD/svg11.dtd">
<svg version="1.1" xmlns="http://www.w3.org/2000/svg" xmlns:xlink="http://www.w3.org/1999/xlink" x="0px" y="0px" width="46px"
	 height="46px" viewBox="0 0 46 46" enable-background="new 0 0 46 46" xml:space="preserve">
<g id="Layer_1">
</g>
<g id="Layer_2">
	<g>
		<g>
			<path fill-rule="evenodd" clip-rule="evenodd" fill="#0064D2" d="M11.5,7.5v2h30v-2H11.5z M11.5,23.5h30v-2h-30V23.5z M11.5,37.5
				h30v-2h-30V37.5z M6.5,6.5c-1.104,0-2,0.896-2,2s0.896,2,2,2s2-0.896,2-2S7.604,6.5,6.5,6.5z M6.5,20.5c-1.104,0-2,0.896-2,2
				s0.896,2,2,2s2-0.896,2-2S7.604,20.5,6.5,20.5z M6.5,34.5c-1.104,0-2,0.896-2,2s0.896,2,2,2s2-0.896,2-2S7.604,34.5,6.5,34.5z"/>
		</g>
	</g>
</g>
</svg>
