<?xml version="1.0" encoding="utf-8"?>
<!-- Generator: Adobe Illustrator 16.2.1, SVG Export Plug-In . SVG Version: 6.00 Build 0)  -->
<!DOCTYPE svg PUBLIC "-//W3C//DTD SVG 1.1//EN" "http://www.w3.org/Graphics/SVG/1.1/DTD/svg11.dtd">
<svg version="1.1" id="Layer_1" xmlns="http://www.w3.org/2000/svg" xmlns:xlink="http://www.w3.org/1999/xlink" x="0px" y="0px"
	 width="150px" height="150px" viewBox="0 0 150 150" enable-background="new 0 0 150 150" xml:space="preserve">
<path fill="#0064D2" d="M75,150c-41.355,0-75-33.645-75-75C0,33.645,33.645,0,75,0c41.355,0,75,33.645,75,75
	C150,116.355,116.355,150,75,150z M75,2.941C35.267,2.941,2.941,35.267,2.941,75c0,39.732,32.326,72.059,72.059,72.059
	c39.732,0,72.059-32.326,72.059-72.059C147.059,35.267,114.732,2.941,75,2.941z"/>
<g id="Layer_2" display="none">
	<path display="inline" fill-rule="evenodd" clip-rule="evenodd" fill="#0064D2" d="M80.952,34.514L54.518,79.646h23.46
		l-13.382,36.867l31.885-47.392H70.048L80.952,34.514z"/>
</g>
<g id="Layer_3" display="none">
	<g display="inline">
		<g>
			<path fill-rule="evenodd" clip-rule="evenodd" fill="#0064D2" d="M83.818,48.826c3.642,0,6.594-2.984,6.594-6.664
				c0-3.68-2.952-6.665-6.594-6.665c-3.643,0-6.595,2.984-6.595,6.665C77.224,45.842,80.176,48.826,83.818,48.826z M99.419,72.555
				l-5.79-3.251c0,0-6.755-4.55-6.434-10.402c0,0-1.166-6.46-6.956-8.411c0,0-2.896-2.275-6.434-0.975l-15.238,7.111
				c0,0-2.212,1.3-2.212,2.925s0,15.318,0,15.318s-0.402,2.925,1.568,2.925c0,0,3.377-1.138,3.377-2.112l0.161-11.581
				c0,0,0.402-0.935,2.895-2.56l2.573-1.991c0,0,2.895-1.951,2.252,0.65c0,0-5.106,7.638-5.106,12.352v11.701l-10.575,24.542
				c0,0-3.217,5.038,1.93,6.664c0,0,3.458,0.528,5.066-2.723l9.328-18.081c0,0,2.091-5.322,3.86-3.535l6.594,7.437
				c0,0,1.77,3.9,1.77,14.302c0,0-0.643,2.601,4.182,2.601c0,0,3.458,0.163,3.458-2.438v-9.589c0,0-0.563-11.052-10.213-22.104
				v-3.25l1.608-9.102c0,0,1.93-2.275,3.217-0.324c0,0-0.322,2.762,5.146,5.688l6.434,2.438c0,0,3.538,1.3,4.182-0.65
				C100.062,76.13,101.35,73.205,99.419,72.555z"/>
		</g>
	</g>
</g>
<g>
	<g>
		<path fill="#0064D2" d="M91.5,49.5h-32c-2.209,0-4,1.791-4,4v44c0,2.209,1.791,4,4,4h23.938L95.5,89.625V53.5
			C95.5,51.291,93.709,49.5,91.5,49.5z M62.5,57.5h27v2h-27V57.5z M62.5,65.5h27v2h-27V65.5z M62.5,73.5h27v2h-27V73.5z M62.5,81.5
			h27v2h-27V81.5z M92.562,89.125l-9.688,9.688c-1.75,1.75-1.375-1.312-1.375-1.312v-8c0-1.938,1.875-1.938,1.875-1.938h8.438
			C94.75,87.5,92.562,89.125,92.562,89.125z"/>
	</g>
</g>
<g id="Layer_4" display="none">
	<g display="inline">
		<g>
			<path fill-rule="evenodd" clip-rule="evenodd" fill="#0064D2" d="M69.126,80.66c-3.617-0.534-1.531-4.729-1.649-4.671
				c-0.119,0.06,0.03-0.858,0.03-0.858c2.083-1.167,2.075-3.293,2.075-3.293V69.6c0,0-0.234-4.416-3.557-4.416l-2.864-1
				c-3.698,0-3.626,5.416-3.626,5.416s0.03-0.378,0,1.905s1.977,3.813,1.977,3.813s0.148,0.919,0.03,0.858
				c-0.119-0.059,1.093,3.949-2.524,4.483c-3.618,0.533-3.987,2.268-4.669,2.92c-1.182,1.527-0.955,3.805-0.955,3.805h22.046
				c0,0-0.336-3.215-1.018-3.867C73.738,82.865,72.744,81.193,69.126,80.66z M103.416,56.417H49.5c-1.104,0-2,0.896-2,2v34
				c0,1.104,0.896,1.999,2,1.999h53.916c1.105,0,2-0.895,2-1.999v-34C105.416,57.312,104.521,56.417,103.416,56.417z M77.5,87.417
				c0,1.104-0.979,2-2.083,2h-22c-1.104,0-2-0.896-2-2v-23c0-1.105,0.896-2,2-2h22c1.105,0,2.083,0.895,2.083,2V87.417z M100.5,87.5
				h-18v-2h18V87.5z M100.5,80.5h-18v-2h18V80.5z M100.5,73.5h-18v-2h18V73.5z M100.5,66.5h-18v-2h18V66.5z"/>
		</g>
	</g>
</g>
<g id="m7ymk9_1_">
</g>
</svg>
